<svg width="25" height="25" viewBox="0 0 25 25" fill="none" xmlns="http://www.w3.org/2000/svg">
<rect width="25" height="25" fill="#3F3F46"/>
<path d="M12.6313 5C10.5353 5 8.83125 6.704 8.83125 8.8C8.83125 10.856 10.4393 12.52 12.5353 12.592C12.5993 12.584 12.6633 12.584 12.7113 12.592C12.7273 12.592 12.7353 12.592 12.7513 12.592C12.7593 12.592 12.7593 12.592 12.7673 12.592C14.8153 12.52 16.4233 10.856 16.4313 8.8C16.4313 6.704 14.7273 5 12.6313 5Z" fill="white"/>
<path d="M16.696 14.7195C14.464 13.2315 10.824 13.2315 8.576 14.7195C7.56 15.3995 7 16.3195 7 17.3035C7 18.2875 7.56 19.1995 8.568 19.8715C9.688 20.6235 11.16 20.9995 12.632 20.9995C14.104 20.9995 15.576 20.6235 16.696 19.8715C17.704 19.1915 18.264 18.2795 18.264 17.2875C18.256 16.3035 17.704 15.3915 16.696 14.7195Z" fill="white"/>
</svg>
